# AST/ASF file generated using VICON BodyLanguage
# -----------------------------------------------
:version 1.10
:name VICON
:units
  mass 1.0
  length 0.45
  angle deg
:documentation
   .ast/.asf automatically generated from VICON data using
   VICON BodyBuilder and BodyLanguage model FoxedUp or BRILLIANT.MOD
:root
   order TX TY TZ RX RY RZ
   axis XYZ
   position 0 0 0  
   orientation 0 0 0 
:bonedata
  begin
     id 1 
     name lhipjoint
     direction 0.576517 -0.752066 0.319413 
     length 2.45433 
     axis 0 0 0  XYZ
  end
  begin
     id 2 
     name lfemur
     direction 0.34202 -0.939693 0  
     length 7.54459  
     axis 0 0 20  XYZ
    dof rx ry rz
    limits (-160.0 20.0)
           (-70.0 70.0)
           (-60.0 70.0)
  end
  begin
     id 3 
     name ltibia
     direction 0.34202 -0.939693 0   
     length 7.73986   
     axis 0 0 20   XYZ
    dof rx
    limits (-10.0 170.0)
  end
  begin
     id 4 
     name lfoot
     direction 0.090693 -0.249177 0.964202   
     length 2.28437   
     axis -90 7.62852e-016 20   XYZ
    dof rx rz
    limits (-45.0 90.0)
           (-70.0 20.0)
  end
  begin
     id 5 
     name ltoes
     direction 1.5356e-011 -4.21928e-011 1   
     length 1.14243   
     axis -90 7.62852e-016 20   XYZ
    dof rx
    limits (-90.0 20.0)
  end
  begin
     id 6 
     name rhipjoint
     direction -0.573937 -0.753736 0.320122   
     length 2.44889  
     axis 0 0 0  XYZ 
  end
  begin
     id 7 
     name rfemur
     direction -0.34202 -0.939693 0   
     length 7.50166   
     axis 0 0 -20   XYZ
    dof rx ry rz
    limits (-160.0 20.0)
           (-70.0 70.0)
           (-70.0 60.0)
  end
  begin
     id 8 
     name rtibia
     direction -0.34202 -0.939693 0   
     length 7.54266   
     axis 0 0 -20   XYZ
    dof rx
    limits (-10.0 170.0)
 end
 begin
     id 9 
     name rfoot
     direction -0.114017 -0.31326 0.942798   
     length 2.34212  
     axis -90 -7.62852e-016 -20   XYZ
    dof rx rz
    limits (-45.0 90.0)
           (-20.0 70.0)
  end
  begin
     id 10 
     name rtoes
     direction -1.53557e-011 -4.21867e-011 1   
     length 1.16246   
     axis -90 -7.62852e-016 -20   XYZ
    dof rx
    limits (-90.0 20.0)
  end
  begin
     id 11 
     name lowerback
     direction -0.0228371 0.999155 -0.034167   
     length 2.0537   
     axis 0 0 0   XYZ
    dof rx ry rz
    limits (-20.0 45.0)
           (-30.0 30.0)
           (-30.0 30.0)
  end
  begin
     id 12 
     name upperback
     direction 0.0198981 0.999794 0.00389455   
     length 2.05302   
     axis 0 0 0   XYZ
    dof rx ry rz
    limits (-20.0 45.0)
           (-30.0 30.0)
           (-30.0 30.0)
  end
  begin
     id 13 
     name thorax
     direction 0.0304566 0.99935 0.0192987   
     length 2.05315   
     axis 0 0 0   XYZ
    dof rx ry rz
    limits (-20.0 45.0)
           (-30.0 30.0)
           (-30.0 30.0)
  end
  begin
     id 14 
     name lowerneck
     direction -0.0196762 0.99417 0.106017   
     length 1.82056   
     axis 0 0 0   XYZ
    dof rx ry rz
    limits (-20.0 45.0)
           (-30.0 30.0)
           (-30.0 30.0)
  end
  begin
     id 15 
     name upperneck
     direction 0.00517787 0.9802 -0.197944   
     length 1.83835   
     axis 0 0 0   XYZ
    dof rx ry rz
    limits (-20.0 45.0)
           (-30.0 30.0)
           (-30.0 30.0)
  end
  begin
     id 16
     name head
     direction 0.00211419 0.996945 -0.078081  
     length 1.85629  
     axis 0 0 0   XYZ
    dof rx ry rz
    limits (-20.0 45.0)
           (-30.0 30.0)
           (-30.0 30.0)
  end
  begin
     id 17 
     name lclavicle
     direction 0.930001 0.365811 -0.0357824  
     length 3.81961  
     axis 0 0 0   XYZ
    dof ry rz
    limits (-20.0 10.0)
           (0.0 20.0)
  end
  begin
     id 18 
     name lhumerus
     direction 1 -4.48968e-011 -3.06644e-027   
     length 5.14507   
     axis 180 -30 -90   XYZ
    dof rx ry rz
    limits (-60.0 90.0)
           (-90.0 90.0)
           (-90.0 90.0)
  end
  begin
     id 19
     name lradius
     direction 1 -4.48965e-011 9.06925e-028   
     length 3.50646   
     axis 180 -30 -90   XYZ
    dof rx
    limits (-10.0 170.0)
  end
  begin
     id 20
     name lwrist
     direction 1 -4.48957e-011 1.03922e-027   
     length 1.75323   
     axis -2.56395e-016 90 90   XYZ
    dof ry
    limits (-180.0 0.0)
 end
  begin
     id 21 
     name lhand
     direction 1 -4.48967e-011 2.08017e-027   
     length 0.629969   
     axis -1.32723e-015 90 90   XYZ
    dof rx rz
    limits (-90.0 90.0)
           (-45.0 45.0)
  end
  begin
     id 22 
     name lfingers
     direction 1 -4.49089e-011 4.20095e-027   
     length 0.507897   
     axis -2.6545e-015 90 90   XYZ
    dof rx
    limits (0.0 90.0)
  end
  begin
     id 23
     name lthumb
     direction 0.707107 -6.35001e-011 0.707107   
     length 0.729241   
     axis -90 45 5.05613e-014   XYZ
    dof rx rz
    limits (-45.0 45.0)
           (-45.0 45.0)
  end
  begin
     id 24 
     name rclavicle
     direction -0.881882 0.464123 -0.0829113   
     length 3.47515  
     axis 0 0 0   XYZ 
    dof ry rz
    limits (-10.0 20.0)
           (-20.0 0.0)
  end
  begin
     id 25 
     name rhumerus
     direction -1 -4.48961e-011 -1.55672e-027  
     length 5.232   
     axis 180 30 90   XYZ
    dof rx ry rz
    limits (-90.0 60.0)
           (-90.0 90.0)
           (-90.0 90.0)
  end
  begin
     id 26 
     name rradius
     direction -1 -4.48963e-011 6.18178e-029   
     length 3.65641   
     axis 180 30 90   XYZ
    dof rx
    limits (-10.0 170.0)
  end
  begin
     id 27 
     name rwrist
     direction -1 -4.48982e-011 1.04136e-027   
     length 1.8282   
     axis -2.56395e-016 -90 -90   XYZ
    dof ry
    limits (-180.0 0.0)
  end
  begin
     id 28
     name rhand
     direction -1 -4.48929e-011 2.07378e-027   
     length 0.656807   
     axis -1.32723e-015 -90 -90   XYZ
    dof rx rz
    limits (-90.0 90.0)
           (-45.0 45.0)
  end
  begin
     id 29
     name rfingers
     direction -1 -4.489e-011 4.13816e-027   
     length 0.529535   
     axis -2.6545e-015 -90 -90   XYZ
    dof rx
    limits (0.0 90.0)
  end
  begin
     id 30
     name rthumb
     direction -0.707107 -6.34843e-011 0.707107   
     length 0.760309   
     axis -90 -45 -5.05613e-014   XYZ
    dof rx rz
    limits (-45.0 45.0)
           (-45.0 45.0)
  end
:hierarchy
  begin
    root lhipjoint rhipjoint lowerback
    lhipjoint lfemur
    lfemur ltibia
    ltibia lfoot
    lfoot ltoes
    rhipjoint rfemur
    rfemur rtibia
    rtibia rfoot
    rfoot rtoes
    lowerback upperback
    upperback thorax
    thorax lowerneck lclavicle rclavicle
    lowerneck upperneck
    upperneck head
    lclavicle lhumerus
    lhumerus lradius
    lradius lwrist
    lwrist lhand lthumb
    lhand lfingers
    rclavicle rhumerus
    rhumerus rradius
    rradius rwrist
    rwrist rhand rthumb
    rhand rfingers
  end

#!OML:ASF H:\ManfredETheater\Project 1\Capture day 1\Session 1\subject.ASF
:FULLY-SPECIFIED
:DEGREES
17
root 0.0619437 16.1319 -36.0457 25.3197 -1.44077 5.07737
lowerback 18.1888 1.51478 -7.44234
upperback -0.0783551 0.288375 -1.2608
thorax -10.3814 0.483712 2.76897
lowerneck -16.2064 -2.86188 -2.40859
upperneck -4.43438 -3.43081 3.82071
head 1.4578 -1.5856 1.43374
rclavicle 9.44227e-015 -2.48481e-014
rhumerus -52.8012 -4.75614 -86.2448
rradius 70.0279
rwrist -16.6145
rhand -32.8257 11.7263
rfingers 7.12502
rthumb -6.04594 -18.1674
lclavicle 9.44227e-015 -2.48481e-014
lhumerus -43.6342 -7.16299 98.7099
lradius 97.8801
lwrist 15.975
lhand -26.494 -12.9639
lfingers 7.12502
lthumb 0.0685861 17.0159
rfemur -40.0862 -14.588 14.9686
rtibia 96.1014
rfoot -2.88693 -2.04912
rtoes -28.3392
lfemur -44.0797 -5.47106 -27.8973
ltibia 65.1449
lfoot -36.1001 -0.834236
ltoes -2.38668
18
root 0.0535156 16.1119 -35.5692 25.4316 -1.83252 5.12037
lowerback 17.9894 1.40787 -7.71591
upperback -0.246182 0.0934383 -1.31721
thorax -10.4386 0.410397 2.91307
lowerneck -16.4928 -2.71788 -2.37481
upperneck -4.18481 -3.24988 3.97559
head 1.58936 -1.48663 1.48848
rclavicle 7.03201e-015 -1.13804e-014
rhumerus -55.0033 -4.43678 -85.6055
rradius 70.2547
rwrist -16.99
rhand -32.8189 12.0036
rfingers 7.12502
rthumb -6.03937 -17.8903
lclavicle 7.03201e-015 -1.13804e-014
lhumerus -42.4285 -7.74921 99.4114
lradius 100.96
lwrist 16.5106
lhand -25.903 -12.8531
lfingers 7.12502
lthumb 0.639432 17.1256
rfemur -44.0107 -15.1237 15.2453
rtibia 97.5259
rfoot -4.6355 -2.03009
rtoes -29.4836
lfemur -41.7671 -5.61329 -28.0676
ltibia 64.2939
lfoot -36.656 -0.568124
ltoes -3.41322
19
root 0.0442443 16.1025 -35.0823 25.525 -2.21319 5.13336
lowerback 17.7494 1.25963 -7.95945
upperback -0.401021 -0.140343 -1.33609
thorax -10.4516 0.316944 3.09128
lowerneck -16.7822 -2.52297 -2.32457
upperneck -3.94133 -3.00416 4.056
head 1.71534 -1.35729 1.52135
rclavicle -1.72694e-015 1.22004e-014
rhumerus -57.2469 -3.9391 -85.0195
rradius 71.0357
rwrist -17.1037
rhand -32.6983 12.239
rfingers 7.12502
rthumb -5.92297 -17.6582
lclavicle -1.72694e-015 1.22004e-014
lhumerus -41.4189 -8.46193 100.145
lradius 104.496
lwrist 17.3351
lhand -25.3724 -12.6555
lfingers 7.12502
lthumb 1.1519 17.3211
rfemur -47.8247 -15.5223 15.625
rtibia 98.4131
rfoot -6.25963 -2.10906
rtoes -30.6502
lfemur -39.3289 -5.6525 -28.2537
ltibia 63.2242
lfoot -36.8914 -0.365958
ltoes -4.83387
20
root 0.034608 16.1059 -34.5835 25.6101 -2.57209 5.10032
lowerback 17.4672 1.06973 -8.14013
upperback -0.550602 -0.406428 -1.31392
thorax -10.4283 0.204916 3.28633
lowerneck -17.0687 -2.27986 -2.24766
upperneck -3.69434 -2.6986 4.03974
head 1.83757 -1.20122 1.52293
rclavicle -5.11871e-015 1.83876e-015
rhumerus -59.4933 -3.33397 -84.4566
rradius 72.2312
rwrist -16.8625
rhand -32.5258 12.4348
rfingers 7.12502
rthumb -5.75635 -17.467
lclavicle -5.11871e-015 1.83876e-015
lhumerus -40.5724 -9.3548 100.875
lradius 108.325
lwrist 18.3221
lhand -24.9236 -12.4459
lfingers 7.12502
lthumb 1.58532 17.528
rfemur -51.4822 -15.7743 16.0997
rtibia 98.7384
rfoot -7.73893 -2.27884
rtoes -31.8708
lfemur -36.7791 -5.62225 -28.4154
ltibia 61.9225
lfoot -36.7525 -0.204407
ltoes -6.80726
21
root 0.024465 16.1243 -34.0712 25.6881 -2.89648 5.00976
lowerback 17.1439 0.840309 -8.23444
upperback -0.696688 -0.697526 -1.24877
thorax -10.3718 0.0763505 3.48418
lowerneck -17.3367 -1.99221 -2.15234
upperneck -3.44367 -2.33639 3.93472
head 1.95445 -1.02024 1.49706
rclavicle 1.73937e-015 -7.95139e-016
rhumerus -61.7024 -2.67682 -83.8855
rradius 73.7016
rwrist -16.3127
rhand -32.2936 12.5724
rfingers 7.12502
rthumb -5.53218 -17.3354
lclavicle 1.73937e-015 -7.95139e-016
lhumerus -39.8565 -10.4536 101.561
lradius 112.284
lwrist 19.2777
lhand -24.5406 -12.2962
lfingers 7.12502
lthumb 1.9553 17.6746
rfemur -54.9206 -15.8815 16.6511
rtibia 98.4878
rfoot -9.04149 -2.49375
rtoes -32.9986
lfemur -34.1276 -5.55824 -28.5151
ltibia 60.3915
lfoot -36.1924 -0.148835
ltoes -9.19967
22
root 0.0141672 16.1572 -33.5461 25.7648 -3.20567 4.8525
lowerback 16.7792 0.585596 -8.22964
upperback -0.841569 -0.994128 -1.14898
thorax -10.2871 -0.0605701 3.66245
lowerneck -17.5836 -1.66866 -2.04116
upperneck -3.17564 -1.92859 3.75128
head 2.07162 -0.819804 1.44687
rclavicle 9.64106e-015 4.07509e-014
rhumerus -63.836 -2.01468 -83.2916
rradius 75.3117
rwrist -15.5586
rhand -32.046 12.6614
rfingers 7.12502
rthumb -5.29319 -17.2525
lclavicle 9.64106e-015 4.07509e-014
lhumerus -39.2613 -11.7667 102.174
lradius 116.239
lwrist 19.977
lhand -24.2384 -12.2202
lfingers 7.12502
lthumb 2.24716 17.7477
rfemur -58.1143 -15.8339 17.2495
rtibia 97.6751
rfoot -10.1293 -2.7426
rtoes -34.0491
lfemur -31.4181 -5.47047 -28.5429
ltibia 58.661
lfoot -35.1625 -0.247581
ltoes -11.8875
23
root 0.00329889 16.2027 -33.0085 25.8227 -3.49166 4.65395
lowerback 16.3935 0.312657 -8.13447
upperback -0.981569 -1.29311 -1.02785
thorax -10.1835 -0.204239 3.81012
lowerneck -17.8063 -1.3237 -1.91626
upperneck -2.88405 -1.49402 3.50499
head 2.1924 -0.609018 1.37655
rclavicle 7.05686e-015 1.66979e-014
rhumerus -65.8731 -1.38932 -82.6629
rradius 76.9573
rwrist -14.7819
rhand -31.759 12.7533
rfingers 7.12502
rthumb -5.01601 -17.1673
lclavicle 7.05686e-015 1.66979e-014
lhumerus -38.791 -13.281 102.702
lradius 120.081
lwrist 20.2629
lhand -24.0174 -12.1922
lfingers 7.12502
lthumb 2.46055 17.7733
rfemur -61.0013 -15.6762 17.8394
rtibia 96.3274
rfoot -11.0107 -3.00442
rtoes -35.0261
lfemur -28.662 -5.38487 -28.5156
ltibia 56.7685
lfoot -33.6264 -0.567731
ltoes -14.6679
